HIERARCHY
ROOT root
{
	OFFSET 0.000000 0.000000 0.000000
	CHANNELS 6 Xposition Yposition Zposition Zrotation Yrotation Xrotation
	JOINT lhip
	{
		OFFSET 0.058581 -0.082280 -0.017664
		CHANNELS 3 Zrotation Yrotation Xrotation
		JOINT lknee
		{
			OFFSET 0.043451 -0.386469 0.008037
			CHANNELS 3 Zrotation Yrotation Xrotation
			JOINT lankle
			{
				OFFSET -0.014790 -0.426874 -0.037428
				CHANNELS 3 Zrotation Yrotation Xrotation
				JOINT ltoe
				{
					OFFSET 0.041054 -0.060286 0.122042
					CHANNELS 3 Zrotation Yrotation Xrotation
					End Site
					{
						OFFSET 0.000000 0.000000 0.000000
					}
				}
			}
		}
	}
	JOINT rhip
	{
		OFFSET -0.060310 -0.090513 -0.013543
		CHANNELS 3 Zrotation Yrotation Xrotation
		JOINT rknee
		{
			OFFSET -0.043257 -0.383688 -0.004843
			CHANNELS 3 Zrotation Yrotation Xrotation
			JOINT rankle
			{
				OFFSET 0.019056 -0.420046 -0.034562
				CHANNELS 3 Zrotation Yrotation Xrotation
				JOINT rtoe
				{
					OFFSET -0.034840 -0.062106 0.130323
					CHANNELS 3 Zrotation Yrotation Xrotation
					End Site
					{
						OFFSET 0.000000 0.000000 0.000000
					}
				}
			}
		}
	}
	JOINT lowerback
	{
		OFFSET 0.004439 0.124404 -0.038385
		CHANNELS 3 Zrotation Yrotation Xrotation
		JOINT upperback
		{
			OFFSET 0.004488 0.137956 0.026820
			CHANNELS 3 Zrotation Yrotation Xrotation
			JOINT chest
			{
				OFFSET -0.002265 0.056032 0.002855
				CHANNELS 3 Zrotation Yrotation Xrotation
				JOINT lowerneck
				{
					OFFSET -0.013390 0.211636 -0.033468
					CHANNELS 3 Zrotation Yrotation Xrotation
					JOINT upperneck
					{
						OFFSET 0.010113 0.088937 0.050410
						CHANNELS 3 Zrotation Yrotation Xrotation
						End Site
						{
							OFFSET 0.000000 0.000000 0.000000
						}
					}
				}
				JOINT lclavicle
				{
					OFFSET 0.071702 0.114000 -0.018898
					CHANNELS 3 Zrotation Yrotation Xrotation
					JOINT lshoulder
					{
						OFFSET 0.122921 0.045205 -0.019046
						CHANNELS 3 Zrotation Yrotation Xrotation
						JOINT lelbow
						{
							OFFSET 0.255332 -0.015649 -0.022946
							CHANNELS 3 Zrotation Yrotation Xrotation
							JOINT lwrist
							{
								OFFSET 0.265709 0.012698 -0.007375
								CHANNELS 3 Zrotation Yrotation Xrotation
								End Site
								{
									OFFSET 0.000000 0.000000 0.000000
								}
							}
						}
					}
				}
				JOINT rclavicle
				{
					OFFSET -0.082954 0.112472 -0.023707
					CHANNELS 3 Zrotation Yrotation Xrotation
					JOINT rshoulder
					{
						OFFSET -0.113228 0.046853 -0.008472
						CHANNELS 3 Zrotation Yrotation Xrotation
						JOINT relbow
						{
							OFFSET -0.260127 -0.014369 -0.031269
							CHANNELS 3 Zrotation Yrotation Xrotation
							JOINT rwrist
							{
								OFFSET -0.269108 0.006794 -0.006027
								CHANNELS 3 Zrotation Yrotation Xrotation
								End Site
								{
									OFFSET 0.000000 0.000000 0.000000
								}
							}
						}
					}
				}
			}
		}
	}
}
MOTION
Frames: 8
Frame Time: 0.033333
0.233308 -1.020874 0.987879 -147.960961 -1.216476 90.892790 10.579566 3.279994 -14.301787 -3.025142 3.266064 8.918455 -2.195569 2.277227 -5.079181 0.000000 -0.000000 0.000000 -9.213380 -9.828543 -7.976654 0.491633 -18.127364 13.521271 3.235971 -7.838794 -9.887718 0.000000 -0.000000 0.000000 5.865130 4.430285 5.889239 1.206481 4.678653 15.458656 2.196348 0.914712 -1.644154 -2.728362 8.591738 2.011003 -4.744908 15.842763 -6.038845 -26.250251 4.595526 7.030154 -50.566628 3.439241 8.814557 12.853208 -69.404883 12.995112 13.226694 -12.092301 -15.015804 25.470745 12.119510 9.139630 40.497135 24.450897 0.087488 -4.510870 30.291573 -27.061715 -10.428351 11.975407 -45.027751 
0.235481 -1.017833 0.985521 -147.929035 -0.933211 91.178392 10.860279 1.738104 -14.756871 -2.156698 3.022375 5.347510 -3.321933 3.270901 -6.603455 0.000000 -0.000000 0.000000 -8.747816 -8.781036 -8.670810 0.302721 -18.509951 14.570544 3.385213 -8.537547 -10.718265 0.000000 -0.000000 0.000000 6.356984 4.904196 5.700906 1.504679 4.846216 15.583470 2.403772 1.004310 -1.209950 -2.196442 8.597472 2.464431 -4.935410 15.238179 -5.920121 -26.474972 3.963740 7.486077 -51.179426 3.403642 9.067116 11.821734 -67.371741 10.259708 17.481090 -13.587188 -13.534133 25.279089 12.971911 9.134345 38.461724 26.357527 -1.083866 -3.791463 28.249108 -29.173915 -17.218568 9.948913 -44.138890 
0.235691 -1.014291 0.983465 -148.158555 -0.523533 90.930157 11.066201 1.806952 -14.940993 -1.585316 2.445552 4.002997 -5.812819 2.959678 -9.102128 0.000000 -0.000000 0.000000 -8.180005 -8.421421 -8.825951 -0.215698 -18.616209 15.689723 3.845322 -8.559687 -11.584903 0.000000 -0.000000 0.000000 6.908324 5.071548 6.224072 1.514916 5.240973 15.471761 2.543897 1.271970 -1.024828 -1.656040 8.499672 2.912621 -4.888161 15.099945 -6.077664 -26.420118 3.713740 7.582794 -51.668839 3.788287 8.893058 9.902888 -66.529665 10.281700 20.243782 -14.126496 -13.056938 24.835415 13.696120 9.196946 36.997030 27.500334 -2.234614 -2.560235 26.852658 -30.041343 -23.825677 8.253117 -43.709356 
0.233201 -1.010125 0.980293 -148.580803 0.382457 90.866708 11.067517 2.286738 -15.326493 -1.149034 0.870369 4.271005 -6.757837 2.217277 -8.664950 0.000000 -0.000000 0.000000 -7.255041 -8.061129 -9.292074 -0.754017 -18.587630 17.143595 3.623331 -8.564408 -12.400865 0.000000 -0.000000 0.000000 7.748586 5.232728 7.159440 1.387236 6.188329 14.207227 2.755224 1.529173 -0.325221 -1.060489 8.323240 2.683182 -4.717775 14.946564 -6.351833 -26.303313 4.213576 7.067195 -51.774376 3.987321 8.186648 4.664818 -66.201594 15.224896 22.523452 -13.804122 -12.481354 23.946461 13.774346 9.257672 36.676790 27.128620 -2.098919 -1.619343 29.301123 -29.334873 -35.554114 4.510759 -44.924201 
0.231275 -1.008282 0.979136 -148.466038 0.704902 90.936410 11.124610 2.216356 -15.195309 -1.114737 -0.203804 3.994873 -6.315178 1.799619 -7.954685 0.000000 -0.000000 0.000000 -7.041935 -8.183429 -9.184260 -0.660739 -18.554454 17.250518 3.286399 -8.644260 -12.372884 0.000000 -0.000000 0.000000 7.836381 5.265431 6.752724 1.536858 6.178983 14.675430 2.782276 1.630107 -0.506306 -1.133861 8.024472 2.697635 -4.408260 15.496188 -6.439613 -26.186241 3.840461 6.984957 -52.364855 4.612067 8.339202 6.218658 -66.388026 13.713921 21.546940 -13.640106 -12.190013 22.801086 14.083196 8.664708 38.270601 25.894408 -1.403645 -2.049608 29.311319 -29.089370 -26.671544 4.220357 -45.578718 
0.225843 -1.004266 0.977094 -148.039191 1.218091 91.254846 11.372726 2.113554 -15.343959 -1.008393 -1.426520 3.740933 -6.388166 1.135065 -6.111233 0.000000 -0.000000 0.000000 -6.745509 -8.313449 -9.082053 -0.631650 -18.554223 17.467485 3.024755 -9.030424 -12.473144 0.000000 -0.000000 0.000000 7.885167 5.247041 5.903880 1.718809 6.035981 15.002020 2.782226 1.579728 -0.612464 -1.240306 8.108481 2.884509 -4.122109 16.559182 -6.513510 -26.411426 3.726828 7.194851 -52.560041 4.889161 8.340122 5.858664 -66.513369 13.818195 21.636731 -13.484383 -11.827907 22.402768 13.936399 8.780052 39.179855 24.953923 -0.793346 -2.579765 31.228556 -28.960509 -24.674241 4.991993 -46.135405 
0.219996 -0.999696 0.974752 -148.393001 1.379033 91.698277 12.133805 2.030497 -15.625297 -1.462521 -0.408480 4.161565 -7.430606 1.694044 -4.426806 0.000000 -0.000000 0.000000 -6.876816 -7.494362 -9.523676 -0.831383 -18.874394 18.294125 3.106847 -9.198560 -12.879403 0.000000 -0.000000 0.000000 7.205677 5.595472 5.069917 1.912020 6.281981 15.011314 2.787159 1.477841 -0.870863 -0.846222 9.144919 3.722887 -3.990645 17.636970 -6.580105 -26.266919 3.608028 7.727152 -52.599234 5.114951 8.599166 4.862166 -66.947602 14.791073 21.922955 -13.417405 -12.006159 22.487207 13.314507 8.961529 40.445144 24.327482 0.206331 -2.747307 33.219110 -27.789544 -23.901962 4.863705 -47.230400 
0.212825 -0.995938 0.972080 -148.243926 1.512379 92.243940 12.719302 2.544119 -16.886141 -2.002587 1.094991 5.896446 -9.027566 1.160318 -2.569006 0.000000 -0.000000 0.000000 -7.143826 -7.335423 -9.979922 -1.170204 -19.492959 19.281688 3.242866 -8.889087 -13.424569 0.000000 -0.000000 0.000000 6.760696 5.844671 4.089089 2.056478 6.271095 15.080455 2.610653 1.483309 -1.135046 -0.574305 11.015630 4.081409 -4.125861 19.263020 -6.477041 -25.932958 3.470446 7.917856 -52.420070 5.615238 9.013709 3.595777 -68.818939 17.006009 22.045130 -13.926602 -11.909207 22.743786 12.647944 9.062958 41.512922 23.625964 0.606786 -2.878364 34.755777 -26.334477 -21.988936 5.280367 -47.621063 
